<svg xmlns="http://www.w3.org/2000/svg" width="8" height="4" viewBox="0 0 8 4"><defs><style>.a,.b,.c{fill:#4c977e;}.b{opacity:0.2;}.c{opacity:0.5;}</style></defs><rect class="a" width="1" height="1"/><rect class="b" width="1" height="1" transform="translate(1)"/><rect class="b" width="1" height="1" transform="translate(2 1)"/><rect class="b" width="1" height="1" transform="translate(4 1)"/><rect class="b" width="1" height="1" transform="translate(5)"/><rect class="c" width="1" height="1" transform="translate(6 1)"/><rect class="c" width="1" height="1" transform="translate(5 2)"/><rect class="c" width="1" height="1" transform="translate(3 3)"/><rect class="c" width="1" height="1" transform="translate(2 3)"/><rect class="c" width="1" height="1" transform="translate(4 3)"/><rect class="c" width="1" height="1" transform="translate(1 2)"/><rect class="c" width="1" height="1" transform="translate(0 1)"/><rect class="a" width="1" height="1" transform="translate(1 1)"/><rect class="a" width="1" height="1" transform="translate(2 2)"/><rect class="a" width="1" height="1" transform="translate(4 2)"/><rect class="a" width="1" height="1" transform="translate(3 2)"/><rect class="a" width="1" height="1" transform="translate(5 1)"/><rect class="a" width="1" height="1" transform="translate(6)"/><rect class="c" width="1" height="1" transform="translate(7 1)"/><rect class="a" width="1" height="1" transform="translate(7)"/></svg>